<svg id="my-svg" width="100%" xmlns="http://www.w3.org/2000/svg" xmlns:xlink="http://www.w3.org/1999/xlink" class="flowchart" style="max-width: 1673.16px; background-color: white;" viewBox="0 0 1673.15625 852" role="graphics-document document" aria-roledescription="flowchart-v2"><style>#my-svg{font-family:"trebuchet ms",verdana,arial,sans-serif;font-size:16px;fill:#333;}@keyframes edge-animation-frame{from{stroke-dashoffset:0;}}@keyframes dash{to{stroke-dashoffset:0;}}#my-svg .edge-animation-slow{stroke-dasharray:9,5!important;stroke-dashoffset:900;animation:dash 50s linear infinite;stroke-linecap:round;}#my-svg .edge-animation-fast{stroke-dasharray:9,5!important;stroke-dashoffset:900;animation:dash 20s linear infinite;stroke-linecap:round;}#my-svg .error-icon{fill:#552222;}#my-svg .error-text{fill:#552222;stroke:#552222;}#my-svg .edge-thickness-normal{stroke-width:1px;}#my-svg .edge-thickness-thick{stroke-width:3.5px;}#my-svg .edge-pattern-solid{stroke-dasharray:0;}#my-svg .edge-thickness-invisible{stroke-width:0;fill:none;}#my-svg .edge-pattern-dashed{stroke-dasharray:3;}#my-svg .edge-pattern-dotted{stroke-dasharray:2;}#my-svg .marker{fill:#333333;stroke:#333333;}#my-svg .marker.cross{stroke:#333333;}#my-svg svg{font-family:"trebuchet ms",verdana,arial,sans-serif;font-size:16px;}#my-svg p{margin:0;}#my-svg .label{font-family:"trebuchet ms",verdana,arial,sans-serif;color:#333;}#my-svg .cluster-label text{fill:#333;}#my-svg .cluster-label span{color:#333;}#my-svg .cluster-label span p{background-color:transparent;}#my-svg .label text,#my-svg span{fill:#333;color:#333;}#my-svg .node rect,#my-svg .node circle,#my-svg .node ellipse,#my-svg .node polygon,#my-svg .node path{fill:#ECECFF;stroke:#9370DB;stroke-width:1px;}#my-svg .rough-node .label text,#my-svg .node .label text,#my-svg .image-shape .label,#my-svg .icon-shape .label{text-anchor:middle;}#my-svg .node .katex path{fill:#000;stroke:#000;stroke-width:1px;}#my-svg .rough-node .label,#my-svg .node .label,#my-svg .image-shape .label,#my-svg .icon-shape .label{text-align:center;}#my-svg .node.clickable{cursor:pointer;}#my-svg .root .anchor path{fill:#333333!important;stroke-width:0;stroke:#333333;}#my-svg .arrowheadPath{fill:#333333;}#my-svg .edgePath .path{stroke:#333333;stroke-width:2.0px;}#my-svg .flowchart-link{stroke:#333333;fill:none;}#my-svg .edgeLabel{background-color:rgba(232,232,232, 0.8);text-align:center;}#my-svg .edgeLabel p{background-color:rgba(232,232,232, 0.8);}#my-svg .edgeLabel rect{opacity:0.5;background-color:rgba(232,232,232, 0.8);fill:rgba(232,232,232, 0.8);}#my-svg .labelBkg{background-color:rgba(232, 232, 232, 0.5);}#my-svg .cluster rect{fill:#ffffde;stroke:#aaaa33;stroke-width:1px;}#my-svg .cluster text{fill:#333;}#my-svg .cluster span{color:#333;}#my-svg div.mermaidTooltip{position:absolute;text-align:center;max-width:200px;padding:2px;font-family:"trebuchet ms",verdana,arial,sans-serif;font-size:12px;background:hsl(80, 100%, 96.2745098039%);border:1px solid #aaaa33;border-radius:2px;pointer-events:none;z-index:100;}#my-svg .flowchartTitleText{text-anchor:middle;font-size:18px;fill:#333;}#my-svg rect.text{fill:none;stroke-width:0;}#my-svg .icon-shape,#my-svg .image-shape{background-color:rgba(232,232,232, 0.8);text-align:center;}#my-svg .icon-shape p,#my-svg .image-shape p{background-color:rgba(232,232,232, 0.8);padding:2px;}#my-svg .icon-shape rect,#my-svg .image-shape rect{opacity:0.5;background-color:rgba(232,232,232, 0.8);fill:rgba(232,232,232, 0.8);}#my-svg .label-icon{display:inline-block;height:1em;overflow:visible;vertical-align:-0.125em;}#my-svg .node .label-icon path{fill:currentColor;stroke:revert;stroke-width:revert;}#my-svg :root{--mermaid-font-family:"trebuchet ms",verdana,arial,sans-serif;}#my-svg .cp&gt;*{fill:#1e3a8a!important;stroke:#60a5fa!important;color:#dbeafe!important;}#my-svg .cp span{fill:#1e3a8a!important;stroke:#60a5fa!important;color:#dbeafe!important;}#my-svg .cp tspan{fill:#dbeafe!important;}#my-svg .dp&gt;*{fill:#78350f!important;stroke:#f59e0b!important;color:#ffedd5!important;}#my-svg .dp span{fill:#78350f!important;stroke:#f59e0b!important;color:#ffedd5!important;}#my-svg .dp tspan{fill:#ffedd5!important;}#my-svg .shared&gt;*{fill:#0f172a!important;stroke:#64748b!important;color:#e2e8f0!important;}#my-svg .shared span{fill:#0f172a!important;stroke:#64748b!important;color:#e2e8f0!important;}#my-svg .shared tspan{fill:#e2e8f0!important;}</style><g><marker id="my-svg_flowchart-v2-pointEnd" class="marker flowchart-v2" viewBox="0 0 10 10" refX="5" refY="5" markerUnits="userSpaceOnUse" markerWidth="8" markerHeight="8" orient="auto"><path d="M 0 0 L 10 5 L 0 10 z" class="arrowMarkerPath" style="stroke-width: 1; stroke-dasharray: 1, 0;"/></marker><marker id="my-svg_flowchart-v2-pointStart" class="marker flowchart-v2" viewBox="0 0 10 10" refX="4.5" refY="5" markerUnits="userSpaceOnUse" markerWidth="8" markerHeight="8" orient="auto"><path d="M 0 5 L 10 10 L 10 0 z" class="arrowMarkerPath" style="stroke-width: 1; stroke-dasharray: 1, 0;"/></marker><marker id="my-svg_flowchart-v2-circleEnd" class="marker flowchart-v2" viewBox="0 0 10 10" refX="11" refY="5" markerUnits="userSpaceOnUse" markerWidth="11" markerHeight="11" orient="auto"><circle cx="5" cy="5" r="5" class="arrowMarkerPath" style="stroke-width: 1; stroke-dasharray: 1, 0;"/></marker><marker id="my-svg_flowchart-v2-circleStart" class="marker flowchart-v2" viewBox="0 0 10 10" refX="-1" refY="5" markerUnits="userSpaceOnUse" markerWidth="11" markerHeight="11" orient="auto"><circle cx="5" cy="5" r="5" class="arrowMarkerPath" style="stroke-width: 1; stroke-dasharray: 1, 0;"/></marker><marker id="my-svg_flowchart-v2-crossEnd" class="marker cross flowchart-v2" viewBox="0 0 11 11" refX="12" refY="5.2" markerUnits="userSpaceOnUse" markerWidth="11" markerHeight="11" orient="auto"><path d="M 1,1 l 9,9 M 10,1 l -9,9" class="arrowMarkerPath" style="stroke-width: 2; stroke-dasharray: 1, 0;"/></marker><marker id="my-svg_flowchart-v2-crossStart" class="marker cross flowchart-v2" viewBox="0 0 11 11" refX="-1" refY="5.2" markerUnits="userSpaceOnUse" markerWidth="11" markerHeight="11" orient="auto"><path d="M 1,1 l 9,9 M 10,1 l -9,9" class="arrowMarkerPath" style="stroke-width: 2; stroke-dasharray: 1, 0;"/></marker><g class="root"><g class="clusters"><g class="cluster" id="SharedSystems" data-look="classic"><rect style="" x="1150.796875" y="31" width="514.359375" height="777"/><g class="cluster-label" transform="translate(1352.1328125, 31)"><foreignObject width="111.6875" height="24"><div xmlns="http://www.w3.org/1999/xhtml" style="display: table-cell; white-space: nowrap; line-height: 1.5; max-width: 200px; text-align: center;"><span class="nodeLabel"><p>Shared Services</p></span></div></foreignObject></g></g><g class="cluster" id="DataPlane" data-look="classic"><rect style="" x="368" y="97" width="732.796875" height="614"/><g class="cluster-label" transform="translate(695.7421875, 97)"><foreignObject width="77.3125" height="24"><div xmlns="http://www.w3.org/1999/xhtml" style="display: table-cell; white-space: nowrap; line-height: 1.5; max-width: 200px; text-align: center;"><span class="nodeLabel"><p>Data Plane</p></span></div></foreignObject></g></g><g class="cluster" id="ControlPlane" data-look="classic"><rect style="" x="8" y="8" width="310" height="836"/><g class="cluster-label" transform="translate(114.4453125, 8)"><foreignObject width="97.109375" height="24"><div xmlns="http://www.w3.org/1999/xhtml" style="display: table-cell; white-space: nowrap; line-height: 1.5; max-width: 200px; text-align: center;"><span class="nodeLabel"><p>Control Plane</p></span></div></foreignObject></g></g></g><g class="edgePaths"><path d="M262.078,310L271.398,310C280.719,310,299.359,310,312.846,310C326.333,310,334.667,310,343,310C351.333,310,359.667,310,380.829,337.93C401.992,365.861,435.984,421.722,452.979,449.652L469.975,477.583" id="L_CP1_DP1_0" class="edge-thickness-normal edge-pattern-solid edge-thickness-normal edge-pattern-solid flowchart-link" style=";" data-edge="true" data-et="edge" data-id="L_CP1_DP1_0" data-points="W3sieCI6MjYyLjA3ODEyNSwieSI6MzEwfSx7IngiOjMxOCwieSI6MzEwfSx7IngiOjM0MywieSI6MzEwfSx7IngiOjM2OCwieSI6MzEwfSx7IngiOjQ3Mi4wNTQ2ODc1LCJ5Ijo0ODF9XQ==" marker-end="url(#my-svg_flowchart-v2-pointEnd)"/><path d="M224.544,583L240.12,576.167C255.696,569.333,286.848,555.667,306.591,548.833C326.333,542,334.667,542,343,542C351.333,542,359.667,542,367.358,541.005C375.05,540.01,382.1,538.021,385.625,537.026L389.15,536.031" id="L_CP2_DP1_0" class="edge-thickness-normal edge-pattern-solid edge-thickness-normal edge-pattern-solid flowchart-link" style=";" data-edge="true" data-et="edge" data-id="L_CP2_DP1_0" data-points="W3sieCI6MjI0LjU0NDExNzY0NzA1ODg0LCJ5Ijo1ODN9LHsieCI6MzE4LCJ5Ijo1NDJ9LHsieCI6MzQzLCJ5Ijo1NDJ9LHsieCI6MzY4LCJ5Ijo1NDJ9LHsieCI6MzkzLCJ5Ijo1MzQuOTQ1MTQzMzAxNzc2Nn1d" marker-end="url(#my-svg_flowchart-v2-pointEnd)"/><path d="M215.565,533L232.638,545.667C249.71,558.333,283.855,583.667,305.094,596.333C326.333,609,334.667,609,343,609C351.333,609,359.667,609,378.035,597.095C396.403,585.19,424.807,561.38,439.009,549.475L453.21,537.57" id="L_CP3_DP1_0" class="edge-thickness-normal edge-pattern-solid edge-thickness-normal edge-pattern-solid flowchart-link" style=";" data-edge="true" data-et="edge" data-id="L_CP3_DP1_0" data-points="W3sieCI6MjE1LjU2NTIxNzM5MTMwNDM0LCJ5Ijo1MzN9LHsieCI6MzE4LCJ5Ijo2MDl9LHsieCI6MzQzLCJ5Ijo2MDl9LHsieCI6MzY4LCJ5Ijo2MDl9LHsieCI6NDU2LjI3NTY4MDY5MzA2OTMsInkiOjUzNX1d" marker-end="url(#my-svg_flowchart-v2-pointEnd)"/><path d="M245.059,755L257.216,751C269.373,747,293.686,739,310.01,735C326.333,731,334.667,731,343,731C351.333,731,359.667,731,383.914,731C408.161,731,448.323,731,503.637,731C558.951,731,629.417,731,705.635,731C781.854,731,863.826,731,930.645,731C997.464,731,1049.13,731,1079.13,722.5C1109.13,714,1117.464,697,1125.797,688.5C1134.13,680,1142.464,680,1155.072,681.089C1167.68,682.178,1184.564,684.357,1193.005,685.446L1201.447,686.535" id="L_CP4_SH1_0" class="edge-thickness-normal edge-pattern-solid edge-thickness-normal edge-pattern-solid flowchart-link" style=";" data-edge="true" data-et="edge" data-id="L_CP4_SH1_0" data-points="W3sieCI6MjQ1LjA1ODgyMzUyOTQxMTc3LCJ5Ijo3NTV9LHsieCI6MzE4LCJ5Ijo3MzF9LHsieCI6MzQzLCJ5Ijo3MzF9LHsieCI6MzY4LCJ5Ijo3MzF9LHsieCI6NDg4LjQ4NDM3NSwieSI6NzMxfSx7IngiOjY5OS44ODI4MTI1LCJ5Ijo3MzF9LHsieCI6OTQ1Ljc5Njg3NSwieSI6NzMxfSx7IngiOjExMDAuNzk2ODc1LCJ5Ijo3MzF9LHsieCI6MTEyNS43OTY4NzUsInkiOjY4MH0seyJ4IjoxMTUwLjc5Njg3NSwieSI6NjgwfSx7IngiOjEyMDUuNDE0MDYyNSwieSI6Njg3LjA0NzM3OTAzMjI1OH1d" marker-end="url(#my-svg_flowchart-v2-pointEnd)"/><path d="M293,203.742L297.167,204.952C301.333,206.161,309.667,208.581,318,209.79C326.333,211,334.667,211,343,211C351.333,211,359.667,211,383.914,211C408.161,211,448.323,211,503.637,211C558.951,211,629.417,211,683.302,211C737.188,211,774.492,211,793.145,211L811.797,211" id="L_CP5_DP5_0" class="edge-thickness-normal edge-pattern-solid edge-thickness-normal edge-pattern-solid flowchart-link" style=";" data-edge="true" data-et="edge" data-id="L_CP5_DP5_0" data-points="W3sieCI6MjkzLCJ5IjoyMDMuNzQxOTM1NDgzODcwOTh9LHsieCI6MzE4LCJ5IjoyMTF9LHsieCI6MzQzLCJ5IjoyMTF9LHsieCI6MzY4LCJ5IjoyMTF9LHsieCI6NDg4LjQ4NDM3NSwieSI6MjExfSx7IngiOjY5OS44ODI4MTI1LCJ5IjoyMTF9LHsieCI6ODE1Ljc5Njg3NSwieSI6MjExfV0=" marker-end="url(#my-svg_flowchart-v2-pointEnd)"/><path d="M533.076,481L560.877,464.167C588.678,447.333,644.281,413.667,690.734,396.833C737.188,380,774.492,380,793.145,380L811.797,380" id="L_DP1_DP2_0" class="edge-thickness-normal edge-pattern-solid edge-thickness-normal edge-pattern-solid flowchart-link" style=";" data-edge="true" data-et="edge" data-id="L_DP1_DP2_0" data-points="W3sieCI6NTMzLjA3NjIzMjkxMDE1NjIsInkiOjQ4MX0seyJ4Ijo2OTkuODgyODEyNSwieSI6MzgwfSx7IngiOjgxNS43OTY4NzUsInkiOjM4MH1d" marker-end="url(#my-svg_flowchart-v2-pointEnd)"/><path d="M583.969,524.712L603.288,528.093C622.607,531.475,661.245,538.237,702.53,541.619C743.815,545,787.747,545,809.714,545L831.68,545" id="L_DP1_DP3_0" class="edge-thickness-normal edge-pattern-solid edge-thickness-normal edge-pattern-solid flowchart-link" style=";" data-edge="true" data-et="edge" data-id="L_DP1_DP3_0" data-points="W3sieCI6NTgzLjk2ODc1LCJ5Ijo1MjQuNzEyMTQ3NTI5NDcyNn0seyJ4Ijo2OTkuODgyODEyNSwieSI6NTQ1fSx7IngiOjgzNS42Nzk2ODc1LCJ5Ijo1NDV9XQ==" marker-end="url(#my-svg_flowchart-v2-pointEnd)"/><path d="M528.965,535L557.451,554C585.938,573,642.91,611,694.107,630C745.305,649,790.727,649,813.438,649L836.148,649" id="L_DP1_DP4_0" class="edge-thickness-normal edge-pattern-solid edge-thickness-normal edge-pattern-solid flowchart-link" style=";" data-edge="true" data-et="edge" data-id="L_DP1_DP4_0" data-points="W3sieCI6NTI4Ljk2NDkyNjg2MTcwMjEsInkiOjUzNX0seyJ4Ijo2OTkuODgyODEyNSwieSI6NjQ5fSx7IngiOjg0MC4xNDg0Mzc1LCJ5Ijo2NDl9XQ==" marker-end="url(#my-svg_flowchart-v2-pointEnd)"/><path d="M1051.445,649L1059.671,649C1067.896,649,1084.346,649,1096.738,657.5C1109.13,666,1117.464,683,1125.797,691.5C1134.13,700,1142.464,700,1155.066,700C1167.669,700,1184.542,700,1192.978,700L1201.414,700" id="L_DP4_SH1_0" class="edge-thickness-normal edge-pattern-solid edge-thickness-normal edge-pattern-solid flowchart-link" style=";" data-edge="true" data-et="edge" data-id="L_DP4_SH1_0" data-points="W3sieCI6MTA1MS40NDUzMTI1LCJ5Ijo2NDl9LHsieCI6MTEwMC43OTY4NzUsInkiOjY0OX0seyJ4IjoxMTI1Ljc5Njg3NSwieSI6NzAwfSx7IngiOjExNTAuNzk2ODc1LCJ5Ijo3MDB9LHsieCI6MTIwNS40MTQwNjI1LCJ5Ijo3MDB9XQ==" marker-end="url(#my-svg_flowchart-v2-pointEnd)"/><path d="M1075.797,211L1079.964,211C1084.13,211,1092.464,211,1100.797,201.833C1109.13,192.667,1117.464,174.333,1125.797,165.167C1134.13,156,1142.464,156,1150.132,156.226C1157.8,156.452,1164.802,156.904,1168.304,157.129L1171.805,157.355" id="L_DP5_SH3_0" class="edge-thickness-normal edge-pattern-solid edge-thickness-normal edge-pattern-solid flowchart-link" style=";" data-edge="true" data-et="edge" data-id="L_DP5_SH3_0" data-points="W3sieCI6MTA3NS43OTY4NzUsInkiOjIxMX0seyJ4IjoxMTAwLjc5Njg3NSwieSI6MjExfSx7IngiOjExMjUuNzk2ODc1LCJ5IjoxNTZ9LHsieCI6MTE1MC43OTY4NzUsInkiOjE1Nn0seyJ4IjoxMTc1Ljc5Njg3NSwieSI6MTU3LjYxMjkwMzIyNTgwNjQ2fV0=" marker-end="url(#my-svg_flowchart-v2-pointEnd)"/><path d="M503.869,481L536.538,423.667C569.207,366.333,634.545,251.667,708.2,194.333C781.854,137,863.826,137,930.645,137C997.464,137,1049.13,137,1079.13,127.833C1109.13,118.667,1117.464,100.333,1125.797,91.167C1134.13,82,1142.464,82,1172.464,82C1202.464,82,1254.13,82,1305.797,82C1357.464,82,1409.13,82,1450.599,139.69C1492.069,197.38,1523.34,312.76,1538.976,370.449L1554.612,428.139" id="L_DP1_SH2_0" class="edge-thickness-normal edge-pattern-solid edge-thickness-normal edge-pattern-solid flowchart-link" style=";" data-edge="true" data-et="edge" data-id="L_DP1_SH2_0" data-points="W3sieCI6NTAzLjg2OTE2Njk0NzQzOTM0LCJ5Ijo0ODF9LHsieCI6Njk5Ljg4MjgxMjUsInkiOjEzN30seyJ4Ijo5NDUuNzk2ODc1LCJ5IjoxMzd9LHsieCI6MTEwMC43OTY4NzUsInkiOjEzN30seyJ4IjoxMTI1Ljc5Njg3NSwieSI6ODJ9LHsieCI6MTE1MC43OTY4NzUsInkiOjgyfSx7IngiOjEzMDUuNzk2ODc1LCJ5Ijo4Mn0seyJ4IjoxNDYwLjc5Njg3NSwieSI6ODJ9LHsieCI6MTU1NS42NTg2NTM4NDYxNTM4LCJ5Ijo0MzJ9XQ==" marker-end="url(#my-svg_flowchart-v2-pointEnd)"/><path d="M1075.797,380L1079.964,380C1084.13,380,1092.464,380,1100.797,380C1109.13,380,1117.464,380,1125.797,380C1134.13,380,1142.464,380,1172.464,380C1202.464,380,1254.13,380,1305.797,380C1357.464,380,1409.13,380,1445.646,388.259C1482.161,396.518,1503.526,413.036,1514.208,421.294L1524.89,429.553" id="L_DP2_SH2_0" class="edge-thickness-normal edge-pattern-solid edge-thickness-normal edge-pattern-solid flowchart-link" style=";" data-edge="true" data-et="edge" data-id="L_DP2_SH2_0" data-points="W3sieCI6MTA3NS43OTY4NzUsInkiOjM4MH0seyJ4IjoxMTAwLjc5Njg3NSwieSI6MzgwfSx7IngiOjExMjUuNzk2ODc1LCJ5IjozODB9LHsieCI6MTE1MC43OTY4NzUsInkiOjM4MH0seyJ4IjoxMzA1Ljc5Njg3NSwieSI6MzgwfSx7IngiOjE0NjAuNzk2ODc1LCJ5IjozODB9LHsieCI6MTUyOC4wNTQzOTA4MjI3ODQ5LCJ5Ijo0MzJ9XQ==" marker-end="url(#my-svg_flowchart-v2-pointEnd)"/><path d="M1055.914,545L1063.395,545C1070.875,545,1085.836,545,1097.483,545C1109.13,545,1117.464,545,1125.797,545C1134.13,545,1142.464,545,1172.464,545C1202.464,545,1254.13,545,1305.797,545C1357.464,545,1409.13,545,1446.137,535.596C1483.143,526.192,1505.49,507.384,1516.663,497.98L1527.837,488.576" id="L_DP3_SH2_0" class="edge-thickness-normal edge-pattern-solid edge-thickness-normal edge-pattern-solid flowchart-link" style=";" data-edge="true" data-et="edge" data-id="L_DP3_SH2_0" data-points="W3sieCI6MTA1NS45MTQwNjI1LCJ5Ijo1NDV9LHsieCI6MTEwMC43OTY4NzUsInkiOjU0NX0seyJ4IjoxMTI1Ljc5Njg3NSwieSI6NTQ1fSx7IngiOjExNTAuNzk2ODc1LCJ5Ijo1NDV9LHsieCI6MTMwNS43OTY4NzUsInkiOjU0NX0seyJ4IjoxNDYwLjc5Njg3NSwieSI6NTQ1fSx7IngiOjE1MzAuODk2ODkzMTY4NjA0NywieSI6NDg2fV0=" marker-end="url(#my-svg_flowchart-v2-pointEnd)"/><path d="M1406.18,700L1415.283,700C1424.385,700,1442.591,700,1466.556,664.947C1490.52,629.894,1520.244,559.788,1535.106,524.736L1549.968,489.683" id="L_SH1_SH2_0" class="edge-thickness-normal edge-pattern-solid edge-thickness-normal edge-pattern-solid flowchart-link" style=";" data-edge="true" data-et="edge" data-id="L_SH1_SH2_0" data-points="W3sieCI6MTQwNi4xNzk2ODc1LCJ5Ijo3MDB9LHsieCI6MTQ2MC43OTY4NzUsInkiOjcwMH0seyJ4IjoxNTUxLjUyOTA0NTY0MzE1MzUsInkiOjQ4Nn1d" marker-end="url(#my-svg_flowchart-v2-pointEnd)"/><path d="M189.656,637L211.047,658.667C232.437,680.333,275.219,723.667,300.776,745.333C326.333,767,334.667,767,343,767C351.333,767,359.667,767,383.914,767C408.161,767,448.323,767,503.637,767C558.951,767,629.417,767,705.635,767C781.854,767,863.826,767,930.645,767C997.464,767,1049.13,767,1079.13,767C1109.13,767,1117.464,767,1125.797,767C1134.13,767,1142.464,767,1161.441,760.598C1180.419,754.196,1210.041,741.391,1224.852,734.989L1239.663,728.587" id="L_CP2_SH1_0" class="edge-thickness-normal edge-pattern-dotted edge-thickness-normal edge-pattern-solid flowchart-link" style=";" data-edge="true" data-et="edge" data-id="L_CP2_SH1_0" data-points="W3sieCI6MTg5LjY1NjA1MDk1NTQxNCwieSI6NjM3fSx7IngiOjMxOCwieSI6NzY3fSx7IngiOjM0MywieSI6NzY3fSx7IngiOjM2OCwieSI6NzY3fSx7IngiOjQ4OC40ODQzNzUsInkiOjc2N30seyJ4Ijo2OTkuODgyODEyNSwieSI6NzY3fSx7IngiOjk0NS43OTY4NzUsInkiOjc2N30seyJ4IjoxMTAwLjc5Njg3NSwieSI6NzY3fSx7IngiOjExMjUuNzk2ODc1LCJ5Ijo3Njd9LHsieCI6MTE1MC43OTY4NzUsInkiOjc2N30seyJ4IjoxMjQzLjMzNDE4ODQzMjgzNTgsInkiOjcyN31d" marker-end="url(#my-svg_flowchart-v2-pointEnd)"/><path d="M222.851,127L238.71,116.667C254.568,106.333,286.284,85.667,306.309,75.333C326.333,65,334.667,65,343,65C351.333,65,359.667,65,383.914,65C408.161,65,448.323,65,503.637,65C558.951,65,629.417,65,705.635,65C781.854,65,863.826,65,930.645,65C997.464,65,1049.13,65,1079.13,83.5C1109.13,102,1117.464,139,1125.797,157.5C1134.13,176,1142.464,176,1150.132,175.774C1157.8,175.548,1164.802,175.096,1168.304,174.871L1171.805,174.645" id="L_CP5_SH3_0" class="edge-thickness-normal edge-pattern-dotted edge-thickness-normal edge-pattern-solid flowchart-link" style=";" data-edge="true" data-et="edge" data-id="L_CP5_SH3_0" data-points="W3sieCI6MjIyLjg1MTQ4NTE0ODUxNDg1LCJ5IjoxMjd9LHsieCI6MzE4LCJ5Ijo2NX0seyJ4IjozNDMsInkiOjY1fSx7IngiOjM2OCwieSI6NjV9LHsieCI6NDg4LjQ4NDM3NSwieSI6NjV9LHsieCI6Njk5Ljg4MjgxMjUsInkiOjY1fSx7IngiOjk0NS43OTY4NzUsInkiOjY1fSx7IngiOjExMDAuNzk2ODc1LCJ5Ijo2NX0seyJ4IjoxMTI1Ljc5Njg3NSwieSI6MTc2fSx7IngiOjExNTAuNzk2ODc1LCJ5IjoxNzZ9LHsieCI6MTE3NS43OTY4NzUsInkiOjE3NC4zODcwOTY3NzQxOTM1NH1d" marker-end="url(#my-svg_flowchart-v2-pointEnd)"/></g><g class="edgeLabels"><g class="edgeLabel"><g class="label" data-id="L_CP1_DP1_0" transform="translate(0, 0)"><foreignObject width="0" height="0"><div xmlns="http://www.w3.org/1999/xhtml" class="labelBkg" style="display: table-cell; white-space: nowrap; line-height: 1.5; max-width: 200px; text-align: center;"><span class="edgeLabel"></span></div></foreignObject></g></g><g class="edgeLabel"><g class="label" data-id="L_CP2_DP1_0" transform="translate(0, 0)"><foreignObject width="0" height="0"><div xmlns="http://www.w3.org/1999/xhtml" class="labelBkg" style="display: table-cell; white-space: nowrap; line-height: 1.5; max-width: 200px; text-align: center;"><span class="edgeLabel"></span></div></foreignObject></g></g><g class="edgeLabel"><g class="label" data-id="L_CP3_DP1_0" transform="translate(0, 0)"><foreignObject width="0" height="0"><div xmlns="http://www.w3.org/1999/xhtml" class="labelBkg" style="display: table-cell; white-space: nowrap; line-height: 1.5; max-width: 200px; text-align: center;"><span class="edgeLabel"></span></div></foreignObject></g></g><g class="edgeLabel"><g class="label" data-id="L_CP4_SH1_0" transform="translate(0, 0)"><foreignObject width="0" height="0"><div xmlns="http://www.w3.org/1999/xhtml" class="labelBkg" style="display: table-cell; white-space: nowrap; line-height: 1.5; max-width: 200px; text-align: center;"><span class="edgeLabel"></span></div></foreignObject></g></g><g class="edgeLabel"><g class="label" data-id="L_CP5_DP5_0" transform="translate(0, 0)"><foreignObject width="0" height="0"><div xmlns="http://www.w3.org/1999/xhtml" class="labelBkg" style="display: table-cell; white-space: nowrap; line-height: 1.5; max-width: 200px; text-align: center;"><span class="edgeLabel"></span></div></foreignObject></g></g><g class="edgeLabel"><g class="label" data-id="L_DP1_DP2_0" transform="translate(0, 0)"><foreignObject width="0" height="0"><div xmlns="http://www.w3.org/1999/xhtml" class="labelBkg" style="display: table-cell; white-space: nowrap; line-height: 1.5; max-width: 200px; text-align: center;"><span class="edgeLabel"></span></div></foreignObject></g></g><g class="edgeLabel"><g class="label" data-id="L_DP1_DP3_0" transform="translate(0, 0)"><foreignObject width="0" height="0"><div xmlns="http://www.w3.org/1999/xhtml" class="labelBkg" style="display: table-cell; white-space: nowrap; line-height: 1.5; max-width: 200px; text-align: center;"><span class="edgeLabel"></span></div></foreignObject></g></g><g class="edgeLabel"><g class="label" data-id="L_DP1_DP4_0" transform="translate(0, 0)"><foreignObject width="0" height="0"><div xmlns="http://www.w3.org/1999/xhtml" class="labelBkg" style="display: table-cell; white-space: nowrap; line-height: 1.5; max-width: 200px; text-align: center;"><span class="edgeLabel"></span></div></foreignObject></g></g><g class="edgeLabel"><g class="label" data-id="L_DP4_SH1_0" transform="translate(0, 0)"><foreignObject width="0" height="0"><div xmlns="http://www.w3.org/1999/xhtml" class="labelBkg" style="display: table-cell; white-space: nowrap; line-height: 1.5; max-width: 200px; text-align: center;"><span class="edgeLabel"></span></div></foreignObject></g></g><g class="edgeLabel"><g class="label" data-id="L_DP5_SH3_0" transform="translate(0, 0)"><foreignObject width="0" height="0"><div xmlns="http://www.w3.org/1999/xhtml" class="labelBkg" style="display: table-cell; white-space: nowrap; line-height: 1.5; max-width: 200px; text-align: center;"><span class="edgeLabel"></span></div></foreignObject></g></g><g class="edgeLabel"><g class="label" data-id="L_DP1_SH2_0" transform="translate(0, 0)"><foreignObject width="0" height="0"><div xmlns="http://www.w3.org/1999/xhtml" class="labelBkg" style="display: table-cell; white-space: nowrap; line-height: 1.5; max-width: 200px; text-align: center;"><span class="edgeLabel"></span></div></foreignObject></g></g><g class="edgeLabel"><g class="label" data-id="L_DP2_SH2_0" transform="translate(0, 0)"><foreignObject width="0" height="0"><div xmlns="http://www.w3.org/1999/xhtml" class="labelBkg" style="display: table-cell; white-space: nowrap; line-height: 1.5; max-width: 200px; text-align: center;"><span class="edgeLabel"></span></div></foreignObject></g></g><g class="edgeLabel"><g class="label" data-id="L_DP3_SH2_0" transform="translate(0, 0)"><foreignObject width="0" height="0"><div xmlns="http://www.w3.org/1999/xhtml" class="labelBkg" style="display: table-cell; white-space: nowrap; line-height: 1.5; max-width: 200px; text-align: center;"><span class="edgeLabel"></span></div></foreignObject></g></g><g class="edgeLabel"><g class="label" data-id="L_SH1_SH2_0" transform="translate(0, 0)"><foreignObject width="0" height="0"><div xmlns="http://www.w3.org/1999/xhtml" class="labelBkg" style="display: table-cell; white-space: nowrap; line-height: 1.5; max-width: 200px; text-align: center;"><span class="edgeLabel"></span></div></foreignObject></g></g><g class="edgeLabel" transform="translate(699.8828125, 767)"><g class="label" data-id="L_CP2_SH1_0" transform="translate(-90.9140625, -12)"><foreignObject width="181.828125" height="24"><div xmlns="http://www.w3.org/1999/xhtml" class="labelBkg" style="display: table-cell; white-space: nowrap; line-height: 1.5; max-width: 200px; text-align: center;"><span class="edgeLabel"><p>issues claims and policies</p></span></div></foreignObject></g></g><g class="edgeLabel" transform="translate(699.8828125, 65)"><g class="label" data-id="L_CP5_SH3_0" transform="translate(-74.0390625, -12)"><foreignObject width="148.078125" height="24"><div xmlns="http://www.w3.org/1999/xhtml" class="labelBkg" style="display: table-cell; white-space: nowrap; line-height: 1.5; max-width: 200px; text-align: center;"><span class="edgeLabel"><p>enforces governance</p></span></div></foreignObject></g></g></g><g class="nodes"><g class="node default cp" id="flowchart-CP1-0" transform="translate(163, 310)"><rect class="basic label-container" style="fill:#1e3a8a !important;stroke:#60a5fa !important" x="-99.078125" y="-27" width="198.15625" height="54"/><g class="label" style="color:#dbeafe !important" transform="translate(-69.078125, -12)"><rect/><foreignObject width="138.15625" height="24"><div style="color: rgb(219, 234, 254) !important; display: table-cell; white-space: nowrap; line-height: 1.5; max-width: 200px; text-align: center;" xmlns="http://www.w3.org/1999/xhtml"><span style="color:#dbeafe !important" class="nodeLabel"><p>Tenant Provisioning</p></span></div></foreignObject></g></g><g class="node default cp" id="flowchart-CP2-1" transform="translate(163, 610)"><rect class="basic label-container" style="fill:#1e3a8a !important;stroke:#60a5fa !important" x="-122.21875" y="-27" width="244.4375" height="54"/><g class="label" style="color:#dbeafe !important" transform="translate(-92.21875, -12)"><rect/><foreignObject width="184.4375" height="24"><div style="color: rgb(219, 234, 254) !important; display: table-cell; white-space: nowrap; line-height: 1.5; max-width: 200px; text-align: center;" xmlns="http://www.w3.org/1999/xhtml"><span style="color:#dbeafe !important" class="nodeLabel"><p>Identity and Access Policy</p></span></div></foreignObject></g></g><g class="node default cp" id="flowchart-CP3-2" transform="translate(163, 494)"><rect class="basic label-container" style="fill:#1e3a8a !important;stroke:#60a5fa !important" x="-130" y="-39" width="260" height="78"/><g class="label" style="color:#dbeafe !important" transform="translate(-100, -24)"><rect/><foreignObject width="200" height="48"><div style="color: rgb(219, 234, 254) !important; display: table; white-space: break-spaces; line-height: 1.5; max-width: 200px; text-align: center; width: 200px;" xmlns="http://www.w3.org/1999/xhtml"><span style="color:#dbeafe !important" class="nodeLabel"><p>Workflow Definition Registry</p></span></div></foreignObject></g></g><g class="node default cp" id="flowchart-CP4-3" transform="translate(163, 782)"><rect class="basic label-container" style="fill:#1e3a8a !important;stroke:#60a5fa !important" x="-117.6328125" y="-27" width="235.265625" height="54"/><g class="label" style="color:#dbeafe !important" transform="translate(-87.6328125, -12)"><rect/><foreignObject width="175.265625" height="24"><div style="color: rgb(219, 234, 254) !important; display: table-cell; white-space: nowrap; line-height: 1.5; max-width: 200px; text-align: center;" xmlns="http://www.w3.org/1999/xhtml"><span style="color:#dbeafe !important" class="nodeLabel"><p>Connector Configuration</p></span></div></foreignObject></g></g><g class="node default cp" id="flowchart-CP5-4" transform="translate(163, 166)"><rect class="basic label-container" style="fill:#1e3a8a !important;stroke:#60a5fa !important" x="-130" y="-39" width="260" height="78"/><g class="label" style="color:#dbeafe !important" transform="translate(-100, -24)"><rect/><foreignObject width="200" height="48"><div style="color: rgb(219, 234, 254) !important; display: table; white-space: break-spaces; line-height: 1.5; max-width: 200px; text-align: center; width: 200px;" xmlns="http://www.w3.org/1999/xhtml"><span style="color:#dbeafe !important" class="nodeLabel"><p>Governance and Audit Policy</p></span></div></foreignObject></g></g><g class="node default dp" id="flowchart-DP1-5" transform="translate(488.484375, 508)"><rect class="basic label-container" style="fill:#78350f !important;stroke:#f59e0b !important" x="-95.484375" y="-27" width="190.96875" height="54"/><g class="label" style="color:#ffedd5 !important" transform="translate(-65.484375, -12)"><rect/><foreignObject width="130.96875" height="24"><div style="color: rgb(255, 237, 213) !important; display: table-cell; white-space: nowrap; line-height: 1.5; max-width: 200px; text-align: center;" xmlns="http://www.w3.org/1999/xhtml"><span style="color:#ffedd5 !important" class="nodeLabel"><p>Workflow Runtime</p></span></div></foreignObject></g></g><g class="node default dp" id="flowchart-DP2-6" transform="translate(945.796875, 380)"><rect class="basic label-container" style="fill:#78350f !important;stroke:#f59e0b !important" x="-130" y="-39" width="260" height="78"/><g class="label" style="color:#ffedd5 !important" transform="translate(-100, -24)"><rect/><foreignObject width="200" height="48"><div style="color: rgb(255, 237, 213) !important; display: table; white-space: break-spaces; line-height: 1.5; max-width: 200px; text-align: center; width: 200px;" xmlns="http://www.w3.org/1999/xhtml"><span style="color:#ffedd5 !important" class="nodeLabel"><p>Document Intake and Processing</p></span></div></foreignObject></g></g><g class="node default dp" id="flowchart-DP3-7" transform="translate(945.796875, 545)"><rect class="basic label-container" style="fill:#78350f !important;stroke:#f59e0b !important" x="-110.1171875" y="-27" width="220.234375" height="54"/><g class="label" style="color:#ffedd5 !important" transform="translate(-80.1171875, -12)"><rect/><foreignObject width="160.234375" height="24"><div style="color: rgb(255, 237, 213) !important; display: table-cell; white-space: nowrap; line-height: 1.5; max-width: 200px; text-align: center;" xmlns="http://www.w3.org/1999/xhtml"><span style="color:#ffedd5 !important" class="nodeLabel"><p>Review Task Execution</p></span></div></foreignObject></g></g><g class="node default dp" id="flowchart-DP4-8" transform="translate(945.796875, 649)"><rect class="basic label-container" style="fill:#78350f !important;stroke:#f59e0b !important" x="-105.6484375" y="-27" width="211.296875" height="54"/><g class="label" style="color:#ffedd5 !important" transform="translate(-75.6484375, -12)"><rect/><foreignObject width="151.296875" height="24"><div style="color: rgb(255, 237, 213) !important; display: table-cell; white-space: nowrap; line-height: 1.5; max-width: 200px; text-align: center;" xmlns="http://www.w3.org/1999/xhtml"><span style="color:#ffedd5 !important" class="nodeLabel"><p>Capability Invocation</p></span></div></foreignObject></g></g><g class="node default dp" id="flowchart-DP5-9" transform="translate(945.796875, 211)"><rect class="basic label-container" style="fill:#78350f !important;stroke:#f59e0b !important" x="-130" y="-39" width="260" height="78"/><g class="label" style="color:#ffedd5 !important" transform="translate(-100, -24)"><rect/><foreignObject width="200" height="48"><div style="color: rgb(255, 237, 213) !important; display: table; white-space: break-spaces; line-height: 1.5; max-width: 200px; text-align: center; width: 200px;" xmlns="http://www.w3.org/1999/xhtml"><span style="color:#ffedd5 !important" class="nodeLabel"><p>Evidence and Event Capture</p></span></div></foreignObject></g></g><g class="node default shared" id="flowchart-SH1-10" transform="translate(1305.796875, 700)"><rect class="basic label-container" style="fill:#0f172a !important;stroke:#64748b !important" x="-100.3828125" y="-27" width="200.765625" height="54"/><g class="label" style="color:#e2e8f0 !important" transform="translate(-70.3828125, -12)"><rect/><foreignObject width="140.765625" height="24"><div style="color: rgb(226, 232, 240) !important; display: table-cell; white-space: nowrap; line-height: 1.5; max-width: 200px; text-align: center;" xmlns="http://www.w3.org/1999/xhtml"><span style="color:#e2e8f0 !important" class="nodeLabel"><p>Connector Gateway</p></span></div></foreignObject></g></g><g class="node default shared" id="flowchart-SH2-11" transform="translate(1562.9765625, 459)"><rect class="basic label-container" style="fill:#0f172a !important;stroke:#64748b !important" x="-77.1796875" y="-27" width="154.359375" height="54"/><g class="label" style="color:#e2e8f0 !important" transform="translate(-47.1796875, -12)"><rect/><foreignObject width="94.359375" height="24"><div style="color: rgb(226, 232, 240) !important; display: table-cell; white-space: nowrap; line-height: 1.5; max-width: 200px; text-align: center;" xmlns="http://www.w3.org/1999/xhtml"><span style="color:#e2e8f0 !important" class="nodeLabel"><p>Observability</p></span></div></foreignObject></g></g><g class="node default shared" id="flowchart-SH3-12" transform="translate(1305.796875, 166)"><rect class="basic label-container" style="fill:#0f172a !important;stroke:#64748b !important" x="-130" y="-39" width="260" height="78"/><g class="label" style="color:#e2e8f0 !important" transform="translate(-100, -24)"><rect/><foreignObject width="200" height="48"><div style="color: rgb(226, 232, 240) !important; display: table; white-space: break-spaces; line-height: 1.5; max-width: 200px; text-align: center; width: 200px;" xmlns="http://www.w3.org/1999/xhtml"><span style="color:#e2e8f0 !important" class="nodeLabel"><p>Transactional and Event Stores</p></span></div></foreignObject></g></g></g></g></g></svg>